<?xml version="1.0" standalone="no"?>
<!DOCTYPE svg PUBLIC "-//W3C//DTD SVG 20010904//EN"
 "http://www.w3.org/TR/2001/REC-SVG-20010904/DTD/svg10.dtd">
<svg version="1.0" xmlns="http://www.w3.org/2000/svg"
 width="152.000000pt" height="152.000000pt" viewBox="0 0 152.000000 152.000000"
 preserveAspectRatio="xMidYMid meet">
<metadata>
Created by potrace 1.11, written by Peter Selinger 2001-2013
</metadata>
<g transform="translate(0.000000,152.000000) scale(0.100000,-0.100000)"
fill="#000000" stroke="none">
<path d="M79 1460 c-12 -3 -25 -14 -28 -25 -12 -35 -6 -1254 5 -1265 7 -7 79
-12 180 -13 93 -2 175 -7 183 -11 10 -6 12 -5 7 2 -4 7 -1 12 9 12 10 0 13 -5
9 -12 -5 -7 -3 -8 7 -2 20 12 100 13 92 1 -4 -6 -1 -7 8 -2 17 11 50 12 67 1
7 -4 12 -2 12 5 0 8 3 9 13 0 8 -6 16 -8 19 -5 3 3 20 7 37 9 22 3 31 0 31
-10 0 -18 16 -20 26 -4 4 8 9 7 15 -2 8 -14 12 -15 45 -18 8 0 12 -5 9 -11 -3
-6 1 -7 9 -4 9 3 16 2 16 -4 0 -6 9 -8 20 -5 12 3 20 0 20 -6 0 -7 -5 -9 -12
-5 -7 5 -8 3 -3 -6 6 -10 11 -9 22 5 7 11 13 14 13 9 0 -5 12 -9 28 -8 15 1
31 -1 37 -4 14 -9 45 -10 45 -2 0 3 19 7 43 7 23 1 43 2 45 3 1 2 5 3 10 4 4
1 13 5 21 10 11 7 12 6 6 -5 -8 -12 -6 -12 8 0 9 7 17 10 17 5 0 -5 4 -4 8 1
4 6 32 23 63 38 48 23 147 108 187 160 30 40 71 144 82 208 21 123 -1 236 -65
344 -46 76 -84 116 -160 167 l-60 40 0 188 c0 139 -4 193 -13 202 -10 10 -133
13 -562 13 -302 0 -559 -2 -571 -5z"/>
</g>
</svg>
